<svg width="52" height="36" viewBox="0 0 52 36" fill="none" xmlns="http://www.w3.org/2000/svg">
<rect x="1.32357" y="0.864583" width="50.3125" height="34.2708" rx="4.01042" fill="#1F72CD" stroke="#D9D9D9" stroke-width="0.729167"/>
<path fill-rule="evenodd" clip-rule="evenodd" d="M10.1095 12.8945L5.33398 23.4627H11.051L11.7597 21.7777H13.3798L14.0885 23.4627H20.3814V22.1767L20.9421 23.4627H24.1972L24.758 22.1495V23.4627H37.8454L39.4367 21.8215L40.9268 23.4627L47.6488 23.4763L42.8581 18.2081L47.6488 12.8945H41.0311L39.482 14.5054L38.0388 12.8945H23.8014L22.5789 15.6223L21.3276 12.8945H15.6225V14.1368L14.9879 12.8945H10.1095ZM29.6528 14.3956H37.1682L39.4668 16.8785L41.8395 14.3956H44.1381L40.6456 18.207L44.1381 21.9745H41.7353L39.4367 19.4627L37.0519 21.9745H29.6528V14.3956ZM31.5085 17.3492V15.9649V15.9636H36.1979L38.2441 18.1775L36.1072 20.4035H31.5085V18.8922H35.6085V17.3492H31.5085ZM11.2151 14.3956H14.0018L17.1695 21.5619V14.3956H20.2222L22.6689 19.5338L24.9237 14.3956H27.9612V21.9789H26.113L26.0979 16.0367L23.4033 21.9789H21.7499L19.0403 16.0367V21.9789H15.238L14.5171 20.2789H10.6227L9.90335 21.9775H7.86613L11.2151 14.3956ZM11.2884 18.7073L12.5714 15.6788L13.853 18.7073H11.2884Z" fill="white"/>
</svg>
