<svg width="52" height="36" viewBox="0 0 52 36" fill="none" xmlns="http://www.w3.org/2000/svg">
<rect x="0.739583" y="0.864583" width="50.3125" height="34.2708" rx="4.01042" fill="white" stroke="#D9D9D9" stroke-width="0.729167"/>
<path fill-rule="evenodd" clip-rule="evenodd" d="M26.2618 25.5218C24.5241 27.0214 22.2699 27.9267 19.8068 27.9267C14.3108 27.9267 9.85547 23.4196 9.85547 17.8598C9.85547 12.3001 14.3108 7.79297 19.8068 7.79297C22.2699 7.79297 24.5241 8.69825 26.2618 10.1979C27.9995 8.69825 30.2536 7.79297 32.7168 7.79297C38.2127 7.79297 42.6681 12.3001 42.6681 17.8598C42.6681 23.4196 38.2127 27.9267 32.7168 27.9267C30.2536 27.9267 27.9995 27.0214 26.2618 25.5218Z" fill="#ED0006"/>
<path fill-rule="evenodd" clip-rule="evenodd" d="M26.2617 25.5218C28.4014 23.6753 29.7581 20.9279 29.7581 17.8598C29.7581 14.7918 28.4014 12.0443 26.2617 10.1979C27.9994 8.69825 30.2536 7.79297 32.7167 7.79297C38.2127 7.79297 42.668 12.3001 42.668 17.8598C42.668 23.4196 38.2127 27.9267 32.7167 27.9267C30.2536 27.9267 27.9994 27.0214 26.2617 25.5218Z" fill="#F9A000"/>
<path fill-rule="evenodd" clip-rule="evenodd" d="M26.262 25.5212C28.4016 23.6748 29.7583 20.9273 29.7583 17.8592C29.7583 14.7912 28.4016 12.0437 26.262 10.1973C24.1223 12.0437 22.7656 14.7912 22.7656 17.8592C22.7656 20.9273 24.1223 23.6748 26.262 25.5212Z" fill="#FF5E00"/>
</svg>
