<svg width="52" height="36" viewBox="0 0 52 36" fill="none" xmlns="http://www.w3.org/2000/svg">
<rect x="1.0306" y="0.864583" width="50.3125" height="34.2708" rx="4.01042" fill="white" stroke="#D9D9D9" stroke-width="0.729167"/>
<path fill-rule="evenodd" clip-rule="evenodd" d="M16.1612 24.2085H13.069L10.7503 15.3624C10.6403 14.9555 10.4066 14.5958 10.0628 14.4262C9.20501 14.0002 8.25973 13.6611 7.22852 13.49V13.1495H12.2097C12.8972 13.1495 13.4128 13.6611 13.4987 14.2552L14.7018 20.6362L17.7924 13.1495H20.7986L16.1612 24.2085ZM22.5176 24.2085H19.5973L22.002 13.1495H24.9222L22.5176 24.2085ZM28.7004 16.2133C28.7863 15.6176 29.3019 15.2771 29.9035 15.2771C30.8487 15.1916 31.8784 15.3626 32.7378 15.7872L33.2534 13.4061C32.394 13.0656 31.4488 12.8945 30.5909 12.8945C27.7566 12.8945 25.6942 14.4264 25.6942 16.5524C25.6942 18.1697 27.1551 19.019 28.1863 19.5306C29.3019 20.0407 29.7316 20.3813 29.6456 20.8914C29.6456 21.6566 28.7863 21.9971 27.9285 21.9971C26.8973 21.9971 25.866 21.7421 24.9223 21.316L24.4067 23.6985C25.4379 24.1231 26.5535 24.2942 27.5847 24.2942C30.7628 24.3782 32.7378 22.8478 32.7378 20.5508C32.7378 17.6581 28.7004 17.4886 28.7004 16.2133V16.2133ZM42.9572 24.2085L40.6385 13.1495H38.1479C37.6323 13.1495 37.1167 13.49 36.9448 14.0002L32.6511 24.2085H35.6573L36.2573 22.5926H39.951L40.2947 24.2085H42.9572ZM38.5786 16.1274L39.4364 20.2953H37.0318L38.5786 16.1274Z" fill="#172B85"/>
</svg>
